<mxfile host="app.diagrams.net" modified="2023-06-22T21:42:56.429Z" agent="Mozilla/5.0 (Windows NT 10.0; Win64; x64) AppleWebKit/537.36 (KHTML, like Gecko) Chrome/114.0.0.0 Safari/537.36 Edg/114.0.1823.51" etag="fowp56k7TfdHmuvKfrpm" version="21.5.0" type="github">
  <diagram id="C5RBs43oDa-KdzZeNtuy" name="Page-1">
    <mxGraphModel dx="-620" dy="484" grid="1" gridSize="10" guides="1" tooltips="1" connect="1" arrows="1" fold="1" page="1" pageScale="1" pageWidth="1500" pageHeight="1500" math="0" shadow="0">
      <root>
        <mxCell id="WIyWlLk6GJQsqaUBKTNV-0" />
        <mxCell id="WIyWlLk6GJQsqaUBKTNV-1" parent="WIyWlLk6GJQsqaUBKTNV-0" />
        <mxCell id="QvNvnMLLL8rubUBJT5Wr-0" value="PacienteDAO" style="swimlane;fontStyle=2;align=center;verticalAlign=top;childLayout=stackLayout;horizontal=1;startSize=26;horizontalStack=0;resizeParent=1;resizeLast=0;collapsible=1;marginBottom=0;rounded=0;shadow=0;strokeWidth=1;fillColor=#fff2cc;strokeColor=#d6b656;" parent="WIyWlLk6GJQsqaUBKTNV-1" vertex="1">
          <mxGeometry x="2220" y="172" width="310" height="164" as="geometry">
            <mxRectangle x="130" y="380" width="160" height="26" as="alternateBounds" />
          </mxGeometry>
        </mxCell>
        <mxCell id="QvNvnMLLL8rubUBJT5Wr-1" value="- mapaPacientes: Map&lt;Integer, Paciente&gt;" style="text;align=left;verticalAlign=top;spacingLeft=4;spacingRight=4;overflow=hidden;rotatable=0;points=[[0,0.5],[1,0.5]];portConstraint=eastwest;fillColor=#fff2cc;strokeColor=#d6b656;" parent="QvNvnMLLL8rubUBJT5Wr-0" vertex="1">
          <mxGeometry y="26" width="310" height="26" as="geometry" />
        </mxCell>
        <mxCell id="QvNvnMLLL8rubUBJT5Wr-2" value="" style="line;html=1;strokeWidth=1;align=left;verticalAlign=middle;spacingTop=-1;spacingLeft=3;spacingRight=3;rotatable=0;labelPosition=right;points=[];portConstraint=eastwest;fillColor=#fff2cc;strokeColor=#d6b656;" parent="QvNvnMLLL8rubUBJT5Wr-0" vertex="1">
          <mxGeometry y="52" width="310" height="8" as="geometry" />
        </mxCell>
        <mxCell id="QvNvnMLLL8rubUBJT5Wr-3" value="+ getPacientes(): Map&lt;Integer, Paciente&gt;" style="text;align=left;verticalAlign=top;spacingLeft=4;spacingRight=4;overflow=hidden;rotatable=0;points=[[0,0.5],[1,0.5]];portConstraint=eastwest;fillColor=#fff2cc;strokeColor=#d6b656;" parent="QvNvnMLLL8rubUBJT5Wr-0" vertex="1">
          <mxGeometry y="60" width="310" height="26" as="geometry" />
        </mxCell>
        <mxCell id="QvNvnMLLL8rubUBJT5Wr-4" value="+ getPaciente(id: int): Paciente" style="text;align=left;verticalAlign=top;spacingLeft=4;spacingRight=4;overflow=hidden;rotatable=0;points=[[0,0.5],[1,0.5]];portConstraint=eastwest;fillColor=#fff2cc;strokeColor=#d6b656;" parent="QvNvnMLLL8rubUBJT5Wr-0" vertex="1">
          <mxGeometry y="86" width="310" height="26" as="geometry" />
        </mxCell>
        <mxCell id="QvNvnMLLL8rubUBJT5Wr-5" value="+ addPaciente(paciente: Paciente): boolean" style="text;align=left;verticalAlign=top;spacingLeft=4;spacingRight=4;overflow=hidden;rotatable=0;points=[[0,0.5],[1,0.5]];portConstraint=eastwest;fillColor=#fff2cc;strokeColor=#d6b656;" parent="QvNvnMLLL8rubUBJT5Wr-0" vertex="1">
          <mxGeometry y="112" width="310" height="26" as="geometry" />
        </mxCell>
        <mxCell id="QvNvnMLLL8rubUBJT5Wr-6" value="+ updatePaciente(id: int, paciente: Paciente): boolean" style="text;align=left;verticalAlign=top;spacingLeft=4;spacingRight=4;overflow=hidden;rotatable=0;points=[[0,0.5],[1,0.5]];portConstraint=eastwest;fillColor=#fff2cc;strokeColor=#d6b656;" parent="QvNvnMLLL8rubUBJT5Wr-0" vertex="1">
          <mxGeometry y="138" width="310" height="26" as="geometry" />
        </mxCell>
        <mxCell id="QvNvnMLLL8rubUBJT5Wr-14" value="MODEL" style="rounded=0;whiteSpace=wrap;html=1;fillColor=#f8cecc;strokeColor=#b85450;" parent="WIyWlLk6GJQsqaUBKTNV-1" vertex="1">
          <mxGeometry x="1575" y="70" width="110" height="20" as="geometry" />
        </mxCell>
        <mxCell id="QvNvnMLLL8rubUBJT5Wr-15" value="REPOSITORY" style="rounded=0;whiteSpace=wrap;html=1;fillColor=#fff2cc;strokeColor=#d6b656;" parent="WIyWlLk6GJQsqaUBKTNV-1" vertex="1">
          <mxGeometry x="1895" y="70" width="110" height="20" as="geometry" />
        </mxCell>
        <mxCell id="QvNvnMLLL8rubUBJT5Wr-16" value="CONTROLLER" style="rounded=0;whiteSpace=wrap;html=1;fillColor=#d5e8d4;strokeColor=#82b366;" parent="WIyWlLk6GJQsqaUBKTNV-1" vertex="1">
          <mxGeometry x="2515" y="70" width="110" height="20" as="geometry" />
        </mxCell>
        <mxCell id="QvNvnMLLL8rubUBJT5Wr-17" value="VISTA" style="rounded=0;whiteSpace=wrap;html=1;fillColor=#dae8fc;strokeColor=#6c8ebf;" parent="WIyWlLk6GJQsqaUBKTNV-1" vertex="1">
          <mxGeometry x="2815" y="70" width="110" height="20" as="geometry" />
        </mxCell>
        <mxCell id="QvNvnMLLL8rubUBJT5Wr-18" value="MAIN" style="rounded=0;whiteSpace=wrap;html=1;fillColor=#e1d5e7;strokeColor=#9673a6;" parent="WIyWlLk6GJQsqaUBKTNV-1" vertex="1">
          <mxGeometry x="2215" y="70" width="110" height="20" as="geometry" />
        </mxCell>
        <mxCell id="QvNvnMLLL8rubUBJT5Wr-19" value="Paciente" style="swimlane;fontStyle=2;align=center;verticalAlign=top;childLayout=stackLayout;horizontal=1;startSize=26;horizontalStack=0;resizeParent=1;resizeLast=0;collapsible=1;marginBottom=0;rounded=0;shadow=0;strokeWidth=1;fillColor=#f8cecc;strokeColor=#b85450;" parent="WIyWlLk6GJQsqaUBKTNV-1" vertex="1">
          <mxGeometry x="1635" y="665" width="405" height="502" as="geometry">
            <mxRectangle x="130" y="380" width="160" height="26" as="alternateBounds" />
          </mxGeometry>
        </mxCell>
        <mxCell id="QvNvnMLLL8rubUBJT5Wr-20" value="- id: int" style="text;align=left;verticalAlign=top;spacingLeft=4;spacingRight=4;overflow=hidden;rotatable=0;points=[[0,0.5],[1,0.5]];portConstraint=eastwest;fillColor=#f8cecc;strokeColor=#b85450;" parent="QvNvnMLLL8rubUBJT5Wr-19" vertex="1">
          <mxGeometry y="26" width="405" height="26" as="geometry" />
        </mxCell>
        <mxCell id="QvNvnMLLL8rubUBJT5Wr-21" value="- apellido: String " style="text;align=left;verticalAlign=top;spacingLeft=4;spacingRight=4;overflow=hidden;rotatable=0;points=[[0,0.5],[1,0.5]];portConstraint=eastwest;rounded=0;shadow=0;html=0;fillColor=#f8cecc;strokeColor=#b85450;" parent="QvNvnMLLL8rubUBJT5Wr-19" vertex="1">
          <mxGeometry y="52" width="405" height="26" as="geometry" />
        </mxCell>
        <mxCell id="QvNvnMLLL8rubUBJT5Wr-145" value="- nombre: String " style="text;align=left;verticalAlign=top;spacingLeft=4;spacingRight=4;overflow=hidden;rotatable=0;points=[[0,0.5],[1,0.5]];portConstraint=eastwest;rounded=0;shadow=0;html=0;fillColor=#f8cecc;strokeColor=#b85450;" parent="QvNvnMLLL8rubUBJT5Wr-19" vertex="1">
          <mxGeometry y="78" width="405" height="26" as="geometry" />
        </mxCell>
        <mxCell id="QvNvnMLLL8rubUBJT5Wr-144" value="- telefono: int" style="text;align=left;verticalAlign=top;spacingLeft=4;spacingRight=4;overflow=hidden;rotatable=0;points=[[0,0.5],[1,0.5]];portConstraint=eastwest;rounded=0;shadow=0;html=0;fillColor=#f8cecc;strokeColor=#b85450;" parent="QvNvnMLLL8rubUBJT5Wr-19" vertex="1">
          <mxGeometry y="104" width="405" height="26" as="geometry" />
        </mxCell>
        <mxCell id="QvNvnMLLL8rubUBJT5Wr-143" value="- direccion: String " style="text;align=left;verticalAlign=top;spacingLeft=4;spacingRight=4;overflow=hidden;rotatable=0;points=[[0,0.5],[1,0.5]];portConstraint=eastwest;rounded=0;shadow=0;html=0;fillColor=#f8cecc;strokeColor=#b85450;" parent="QvNvnMLLL8rubUBJT5Wr-19" vertex="1">
          <mxGeometry y="130" width="405" height="26" as="geometry" />
        </mxCell>
        <mxCell id="QvNvnMLLL8rubUBJT5Wr-25" value="" style="line;html=1;strokeWidth=1;align=left;verticalAlign=middle;spacingTop=-1;spacingLeft=3;spacingRight=3;rotatable=0;labelPosition=right;points=[];portConstraint=eastwest;fillColor=#f8cecc;strokeColor=#b85450;" parent="QvNvnMLLL8rubUBJT5Wr-19" vertex="1">
          <mxGeometry y="156" width="405" height="8" as="geometry" />
        </mxCell>
        <mxCell id="QvNvnMLLL8rubUBJT5Wr-26" value="Usuario() " style="text;align=left;verticalAlign=top;spacingLeft=4;spacingRight=4;overflow=hidden;rotatable=0;points=[[0,0.5],[1,0.5]];portConstraint=eastwest;fillColor=#f8cecc;strokeColor=#b85450;" parent="QvNvnMLLL8rubUBJT5Wr-19" vertex="1">
          <mxGeometry y="164" width="405" height="26" as="geometry" />
        </mxCell>
        <mxCell id="QvNvnMLLL8rubUBJT5Wr-27" value="+ Paciente(apellido: String, nombre: String, telefono: int, direccion: String)" style="text;align=left;verticalAlign=top;spacingLeft=4;spacingRight=4;overflow=hidden;rotatable=0;points=[[0,0.5],[1,0.5]];portConstraint=eastwest;fillColor=#f8cecc;strokeColor=#b85450;" parent="QvNvnMLLL8rubUBJT5Wr-19" vertex="1">
          <mxGeometry y="190" width="405" height="26" as="geometry" />
        </mxCell>
        <mxCell id="QvNvnMLLL8rubUBJT5Wr-28" value="+ getId(): int" style="text;align=left;verticalAlign=top;spacingLeft=4;spacingRight=4;overflow=hidden;rotatable=0;points=[[0,0.5],[1,0.5]];portConstraint=eastwest;fillColor=#f8cecc;strokeColor=#b85450;" parent="QvNvnMLLL8rubUBJT5Wr-19" vertex="1">
          <mxGeometry y="216" width="405" height="26" as="geometry" />
        </mxCell>
        <mxCell id="QvNvnMLLL8rubUBJT5Wr-29" value="+ setId(id: int)" style="text;align=left;verticalAlign=top;spacingLeft=4;spacingRight=4;overflow=hidden;rotatable=0;points=[[0,0.5],[1,0.5]];portConstraint=eastwest;fillColor=#f8cecc;strokeColor=#b85450;" parent="QvNvnMLLL8rubUBJT5Wr-19" vertex="1">
          <mxGeometry y="242" width="405" height="26" as="geometry" />
        </mxCell>
        <mxCell id="QvNvnMLLL8rubUBJT5Wr-146" value="+ getApellido(): String " style="text;align=left;verticalAlign=top;spacingLeft=4;spacingRight=4;overflow=hidden;rotatable=0;points=[[0,0.5],[1,0.5]];portConstraint=eastwest;fillColor=#f8cecc;strokeColor=#b85450;" parent="QvNvnMLLL8rubUBJT5Wr-19" vertex="1">
          <mxGeometry y="268" width="405" height="26" as="geometry" />
        </mxCell>
        <mxCell id="QvNvnMLLL8rubUBJT5Wr-148" value="+ setApellido(apellido: String)" style="text;align=left;verticalAlign=top;spacingLeft=4;spacingRight=4;overflow=hidden;rotatable=0;points=[[0,0.5],[1,0.5]];portConstraint=eastwest;fillColor=#f8cecc;strokeColor=#b85450;" parent="QvNvnMLLL8rubUBJT5Wr-19" vertex="1">
          <mxGeometry y="294" width="405" height="26" as="geometry" />
        </mxCell>
        <mxCell id="QvNvnMLLL8rubUBJT5Wr-30" value="+ getNombre(): String " style="text;align=left;verticalAlign=top;spacingLeft=4;spacingRight=4;overflow=hidden;rotatable=0;points=[[0,0.5],[1,0.5]];portConstraint=eastwest;fillColor=#f8cecc;strokeColor=#b85450;" parent="QvNvnMLLL8rubUBJT5Wr-19" vertex="1">
          <mxGeometry y="320" width="405" height="26" as="geometry" />
        </mxCell>
        <mxCell id="QvNvnMLLL8rubUBJT5Wr-31" value="+ setNombre(nombre: String)" style="text;align=left;verticalAlign=top;spacingLeft=4;spacingRight=4;overflow=hidden;rotatable=0;points=[[0,0.5],[1,0.5]];portConstraint=eastwest;fillColor=#f8cecc;strokeColor=#b85450;" parent="QvNvnMLLL8rubUBJT5Wr-19" vertex="1">
          <mxGeometry y="346" width="405" height="26" as="geometry" />
        </mxCell>
        <mxCell id="QvNvnMLLL8rubUBJT5Wr-150" value="+ getTelefono(): int" style="text;align=left;verticalAlign=top;spacingLeft=4;spacingRight=4;overflow=hidden;rotatable=0;points=[[0,0.5],[1,0.5]];portConstraint=eastwest;fillColor=#f8cecc;strokeColor=#b85450;" parent="QvNvnMLLL8rubUBJT5Wr-19" vertex="1">
          <mxGeometry y="372" width="405" height="26" as="geometry" />
        </mxCell>
        <mxCell id="QvNvnMLLL8rubUBJT5Wr-149" value="+ setTelefono(telefono: int)" style="text;align=left;verticalAlign=top;spacingLeft=4;spacingRight=4;overflow=hidden;rotatable=0;points=[[0,0.5],[1,0.5]];portConstraint=eastwest;fillColor=#f8cecc;strokeColor=#b85450;" parent="QvNvnMLLL8rubUBJT5Wr-19" vertex="1">
          <mxGeometry y="398" width="405" height="26" as="geometry" />
        </mxCell>
        <mxCell id="QvNvnMLLL8rubUBJT5Wr-34" value="+ getDireccion(): String " style="text;align=left;verticalAlign=top;spacingLeft=4;spacingRight=4;overflow=hidden;rotatable=0;points=[[0,0.5],[1,0.5]];portConstraint=eastwest;fillColor=#f8cecc;strokeColor=#b85450;" parent="QvNvnMLLL8rubUBJT5Wr-19" vertex="1">
          <mxGeometry y="424" width="405" height="26" as="geometry" />
        </mxCell>
        <mxCell id="QvNvnMLLL8rubUBJT5Wr-35" value="+ setDireccion(direccion: String)" style="text;align=left;verticalAlign=top;spacingLeft=4;spacingRight=4;overflow=hidden;rotatable=0;points=[[0,0.5],[1,0.5]];portConstraint=eastwest;fillColor=#f8cecc;strokeColor=#b85450;" parent="QvNvnMLLL8rubUBJT5Wr-19" vertex="1">
          <mxGeometry y="450" width="405" height="26" as="geometry" />
        </mxCell>
        <mxCell id="QvNvnMLLL8rubUBJT5Wr-36" value="+ toString(): String" style="text;align=left;verticalAlign=top;spacingLeft=4;spacingRight=4;overflow=hidden;rotatable=0;points=[[0,0.5],[1,0.5]];portConstraint=eastwest;fillColor=#f8cecc;strokeColor=#b85450;" parent="QvNvnMLLL8rubUBJT5Wr-19" vertex="1">
          <mxGeometry y="476" width="405" height="26" as="geometry" />
        </mxCell>
        <mxCell id="QvNvnMLLL8rubUBJT5Wr-37" value="GestionDePacientesController" style="swimlane;fontStyle=2;align=center;verticalAlign=top;childLayout=stackLayout;horizontal=1;startSize=26;horizontalStack=0;resizeParent=1;resizeLast=0;collapsible=1;marginBottom=0;rounded=0;shadow=0;strokeWidth=1;fillColor=#d5e8d4;strokeColor=#82b366;" parent="WIyWlLk6GJQsqaUBKTNV-1" vertex="1">
          <mxGeometry x="1630" y="172" width="410" height="398" as="geometry">
            <mxRectangle x="130" y="380" width="160" height="26" as="alternateBounds" />
          </mxGeometry>
        </mxCell>
        <mxCell id="QvNvnMLLL8rubUBJT5Wr-38" value="-GestionDePacientes: GestionDePacientes" style="text;align=left;verticalAlign=top;spacingLeft=4;spacingRight=4;overflow=hidden;rotatable=0;points=[[0,0.5],[1,0.5]];portConstraint=eastwest;fillColor=#d5e8d4;strokeColor=#82b366;" parent="QvNvnMLLL8rubUBJT5Wr-37" vertex="1">
          <mxGeometry y="26" width="410" height="26" as="geometry" />
        </mxCell>
        <mxCell id="QvNvnMLLL8rubUBJT5Wr-39" value="- agregarPaciente: agregarPaciente" style="text;align=left;verticalAlign=top;spacingLeft=4;spacingRight=4;overflow=hidden;rotatable=0;points=[[0,0.5],[1,0.5]];portConstraint=eastwest;rounded=0;shadow=0;html=0;fillColor=#d5e8d4;strokeColor=#82b366;" parent="QvNvnMLLL8rubUBJT5Wr-37" vertex="1">
          <mxGeometry y="52" width="410" height="26" as="geometry" />
        </mxCell>
        <mxCell id="QvNvnMLLL8rubUBJT5Wr-40" value="- editarPaciente: editarPaciente" style="text;align=left;verticalAlign=top;spacingLeft=4;spacingRight=4;overflow=hidden;rotatable=0;points=[[0,0.5],[1,0.5]];portConstraint=eastwest;rounded=0;shadow=0;html=0;fillColor=#d5e8d4;strokeColor=#82b366;" parent="QvNvnMLLL8rubUBJT5Wr-37" vertex="1">
          <mxGeometry y="78" width="410" height="26" as="geometry" />
        </mxCell>
        <mxCell id="QvNvnMLLL8rubUBJT5Wr-49" value="- PacienteDAO: PacienteDAO" style="text;align=left;verticalAlign=top;spacingLeft=4;spacingRight=4;overflow=hidden;rotatable=0;points=[[0,0.5],[1,0.5]];portConstraint=eastwest;fillColor=#d5e8d4;strokeColor=#82b366;" parent="QvNvnMLLL8rubUBJT5Wr-37" vertex="1">
          <mxGeometry y="104" width="410" height="26" as="geometry" />
        </mxCell>
        <mxCell id="QvNvnMLLL8rubUBJT5Wr-52" value="- mapaPacientes: Map " style="text;align=left;verticalAlign=top;spacingLeft=4;spacingRight=4;overflow=hidden;rotatable=0;points=[[0,0.5],[1,0.5]];portConstraint=eastwest;fillColor=#d5e8d4;strokeColor=#82b366;" parent="QvNvnMLLL8rubUBJT5Wr-37" vertex="1">
          <mxGeometry y="130" width="410" height="26" as="geometry" />
        </mxCell>
        <mxCell id="QvNvnMLLL8rubUBJT5Wr-55" value="- jLista: javax.swing.JList&lt;String&gt;" style="text;align=left;verticalAlign=top;spacingLeft=4;spacingRight=4;overflow=hidden;rotatable=0;points=[[0,0.5],[1,0.5]];portConstraint=eastwest;fillColor=#d5e8d4;strokeColor=#82b366;" parent="QvNvnMLLL8rubUBJT5Wr-37" vertex="1">
          <mxGeometry y="156" width="410" height="26" as="geometry" />
        </mxCell>
        <mxCell id="QvNvnMLLL8rubUBJT5Wr-56" value="- listaMapPacientes: List  &lt;Map.Entry&lt;Integer, Paciente&gt;&gt;" style="text;align=left;verticalAlign=top;spacingLeft=4;spacingRight=4;overflow=hidden;rotatable=0;points=[[0,0.5],[1,0.5]];portConstraint=eastwest;fillColor=#d5e8d4;strokeColor=#82b366;" parent="QvNvnMLLL8rubUBJT5Wr-37" vertex="1">
          <mxGeometry y="182" width="410" height="26" as="geometry" />
        </mxCell>
        <mxCell id="QvNvnMLLL8rubUBJT5Wr-59" value="- strBusqueda1: String" style="text;align=left;verticalAlign=top;spacingLeft=4;spacingRight=4;overflow=hidden;rotatable=0;points=[[0,0.5],[1,0.5]];portConstraint=eastwest;fillColor=#d5e8d4;strokeColor=#82b366;" parent="QvNvnMLLL8rubUBJT5Wr-37" vertex="1">
          <mxGeometry y="208" width="410" height="26" as="geometry" />
        </mxCell>
        <mxCell id="QvNvnMLLL8rubUBJT5Wr-61" value="- modeloLista: DefaultListModel&lt;String&gt;" style="text;align=left;verticalAlign=top;spacingLeft=4;spacingRight=4;overflow=hidden;rotatable=0;points=[[0,0.5],[1,0.5]];portConstraint=eastwest;fillColor=#d5e8d4;strokeColor=#82b366;" parent="QvNvnMLLL8rubUBJT5Wr-37" vertex="1">
          <mxGeometry y="234" width="410" height="26" as="geometry" />
        </mxCell>
        <mxCell id="QvNvnMLLL8rubUBJT5Wr-62" value="- modeloListaResultado: DefaultListModel&lt;String&gt;" style="text;align=left;verticalAlign=top;spacingLeft=4;spacingRight=4;overflow=hidden;rotatable=0;points=[[0,0.5],[1,0.5]];portConstraint=eastwest;fillColor=#d5e8d4;strokeColor=#82b366;" parent="QvNvnMLLL8rubUBJT5Wr-37" vertex="1">
          <mxGeometry y="260" width="410" height="26" as="geometry" />
        </mxCell>
        <mxCell id="QvNvnMLLL8rubUBJT5Wr-63" value="- index: int" style="text;align=left;verticalAlign=top;spacingLeft=4;spacingRight=4;overflow=hidden;rotatable=0;points=[[0,0.5],[1,0.5]];portConstraint=eastwest;fillColor=#d5e8d4;strokeColor=#82b366;" parent="QvNvnMLLL8rubUBJT5Wr-37" vertex="1">
          <mxGeometry y="286" width="410" height="26" as="geometry" />
        </mxCell>
        <mxCell id="QvNvnMLLL8rubUBJT5Wr-64" value="" style="line;html=1;strokeWidth=1;align=left;verticalAlign=middle;spacingTop=-1;spacingLeft=3;spacingRight=3;rotatable=0;labelPosition=right;points=[];portConstraint=eastwest;fillColor=#d5e8d4;strokeColor=#82b366;" parent="QvNvnMLLL8rubUBJT5Wr-37" vertex="1">
          <mxGeometry y="312" width="410" height="8" as="geometry" />
        </mxCell>
        <mxCell id="QvNvnMLLL8rubUBJT5Wr-65" value="GestionDePacientesController(GestionDePacientes: GestionDePacientes)" style="text;align=left;verticalAlign=top;spacingLeft=4;spacingRight=4;overflow=hidden;rotatable=0;points=[[0,0.5],[1,0.5]];portConstraint=eastwest;fillColor=#d5e8d4;strokeColor=#82b366;" parent="QvNvnMLLL8rubUBJT5Wr-37" vertex="1">
          <mxGeometry y="320" width="410" height="26" as="geometry" />
        </mxCell>
        <mxCell id="QvNvnMLLL8rubUBJT5Wr-66" value="+ pacientesActuales(): void " style="text;align=left;verticalAlign=top;spacingLeft=4;spacingRight=4;overflow=hidden;rotatable=0;points=[[0,0.5],[1,0.5]];portConstraint=eastwest;fillColor=#d5e8d4;strokeColor=#82b366;" parent="QvNvnMLLL8rubUBJT5Wr-37" vertex="1">
          <mxGeometry y="346" width="410" height="26" as="geometry" />
        </mxCell>
        <mxCell id="QvNvnMLLL8rubUBJT5Wr-69" value="+ actualizarJListaPacientes(): void" style="text;align=left;verticalAlign=top;spacingLeft=4;spacingRight=4;overflow=hidden;rotatable=0;points=[[0,0.5],[1,0.5]];portConstraint=eastwest;fillColor=#d5e8d4;strokeColor=#82b366;" parent="QvNvnMLLL8rubUBJT5Wr-37" vertex="1">
          <mxGeometry y="372" width="410" height="26" as="geometry" />
        </mxCell>
        <mxCell id="QvNvnMLLL8rubUBJT5Wr-72" value="GestionDePacientes" style="swimlane;fontStyle=2;align=center;verticalAlign=top;childLayout=stackLayout;horizontal=1;startSize=26;horizontalStack=0;resizeParent=1;resizeLast=0;collapsible=1;marginBottom=0;rounded=0;shadow=0;strokeWidth=1;fillColor=#dae8fc;strokeColor=#6c8ebf;" parent="WIyWlLk6GJQsqaUBKTNV-1" vertex="1">
          <mxGeometry x="2370" y="450" width="270" height="970" as="geometry">
            <mxRectangle x="130" y="380" width="160" height="26" as="alternateBounds" />
          </mxGeometry>
        </mxCell>
        <mxCell id="QvNvnMLLL8rubUBJT5Wr-73" value="- btnAgregar: JButton " style="text;align=left;verticalAlign=top;spacingLeft=4;spacingRight=4;overflow=hidden;rotatable=0;points=[[0,0.5],[1,0.5]];portConstraint=eastwest;fillColor=#dae8fc;strokeColor=#6c8ebf;" parent="QvNvnMLLL8rubUBJT5Wr-72" vertex="1">
          <mxGeometry y="26" width="270" height="26" as="geometry" />
        </mxCell>
        <mxCell id="QvNvnMLLL8rubUBJT5Wr-74" value="- btnActualizar: JButton " style="text;align=left;verticalAlign=top;spacingLeft=4;spacingRight=4;overflow=hidden;rotatable=0;points=[[0,0.5],[1,0.5]];portConstraint=eastwest;rounded=0;shadow=0;html=0;fillColor=#dae8fc;strokeColor=#6c8ebf;" parent="QvNvnMLLL8rubUBJT5Wr-72" vertex="1">
          <mxGeometry y="52" width="270" height="26" as="geometry" />
        </mxCell>
        <mxCell id="QvNvnMLLL8rubUBJT5Wr-134" value="- btnCancelar: JButton " style="text;align=left;verticalAlign=top;spacingLeft=4;spacingRight=4;overflow=hidden;rotatable=0;points=[[0,0.5],[1,0.5]];portConstraint=eastwest;fillColor=#dae8fc;strokeColor=#6c8ebf;" parent="QvNvnMLLL8rubUBJT5Wr-72" vertex="1">
          <mxGeometry y="78" width="270" height="26" as="geometry" />
        </mxCell>
        <mxCell id="QvNvnMLLL8rubUBJT5Wr-142" value="- btnBuscar: JButton " style="text;align=left;verticalAlign=top;spacingLeft=4;spacingRight=4;overflow=hidden;rotatable=0;points=[[0,0.5],[1,0.5]];portConstraint=eastwest;rounded=0;shadow=0;html=0;fillColor=#dae8fc;strokeColor=#6c8ebf;" parent="QvNvnMLLL8rubUBJT5Wr-72" vertex="1">
          <mxGeometry y="104" width="270" height="26" as="geometry" />
        </mxCell>
        <mxCell id="QvNvnMLLL8rubUBJT5Wr-126" value="- btnGrabar: JButton " style="text;align=left;verticalAlign=top;spacingLeft=4;spacingRight=4;overflow=hidden;rotatable=0;points=[[0,0.5],[1,0.5]];portConstraint=eastwest;rounded=0;shadow=0;html=0;fillColor=#dae8fc;strokeColor=#6c8ebf;" parent="QvNvnMLLL8rubUBJT5Wr-72" vertex="1">
          <mxGeometry y="130" width="270" height="26" as="geometry" />
        </mxCell>
        <mxCell id="QvNvnMLLL8rubUBJT5Wr-75" value="- lblApellido: JLabel  " style="text;align=left;verticalAlign=top;spacingLeft=4;spacingRight=4;overflow=hidden;rotatable=0;points=[[0,0.5],[1,0.5]];portConstraint=eastwest;rounded=0;shadow=0;html=0;fillColor=#dae8fc;strokeColor=#6c8ebf;" parent="QvNvnMLLL8rubUBJT5Wr-72" vertex="1">
          <mxGeometry y="156" width="270" height="26" as="geometry" />
        </mxCell>
        <mxCell id="QvNvnMLLL8rubUBJT5Wr-128" value="- lblNombre: JLabel  " style="text;align=left;verticalAlign=top;spacingLeft=4;spacingRight=4;overflow=hidden;rotatable=0;points=[[0,0.5],[1,0.5]];portConstraint=eastwest;rounded=0;shadow=0;html=0;fillColor=#dae8fc;strokeColor=#6c8ebf;" parent="QvNvnMLLL8rubUBJT5Wr-72" vertex="1">
          <mxGeometry y="182" width="270" height="26" as="geometry" />
        </mxCell>
        <mxCell id="QvNvnMLLL8rubUBJT5Wr-127" value="- lblIdentificacion: JLabel  " style="text;align=left;verticalAlign=top;spacingLeft=4;spacingRight=4;overflow=hidden;rotatable=0;points=[[0,0.5],[1,0.5]];portConstraint=eastwest;rounded=0;shadow=0;html=0;fillColor=#dae8fc;strokeColor=#6c8ebf;" parent="QvNvnMLLL8rubUBJT5Wr-72" vertex="1">
          <mxGeometry y="208" width="270" height="26" as="geometry" />
        </mxCell>
        <mxCell id="QvNvnMLLL8rubUBJT5Wr-76" value="- lblTelefono: JLabel " style="text;align=left;verticalAlign=top;spacingLeft=4;spacingRight=4;overflow=hidden;rotatable=0;points=[[0,0.5],[1,0.5]];portConstraint=eastwest;rounded=0;shadow=0;html=0;fillColor=#dae8fc;strokeColor=#6c8ebf;" parent="QvNvnMLLL8rubUBJT5Wr-72" vertex="1">
          <mxGeometry y="234" width="270" height="26" as="geometry" />
        </mxCell>
        <mxCell id="QvNvnMLLL8rubUBJT5Wr-129" value="- lblDireccion: JLabel " style="text;align=left;verticalAlign=top;spacingLeft=4;spacingRight=4;overflow=hidden;rotatable=0;points=[[0,0.5],[1,0.5]];portConstraint=eastwest;rounded=0;shadow=0;html=0;fillColor=#dae8fc;strokeColor=#6c8ebf;" parent="QvNvnMLLL8rubUBJT5Wr-72" vertex="1">
          <mxGeometry y="260" width="270" height="26" as="geometry" />
        </mxCell>
        <mxCell id="QvNvnMLLL8rubUBJT5Wr-78" value="- txtIdentificacion: JTextField   " style="text;align=left;verticalAlign=top;spacingLeft=4;spacingRight=4;overflow=hidden;rotatable=0;points=[[0,0.5],[1,0.5]];portConstraint=eastwest;fillColor=#dae8fc;strokeColor=#6c8ebf;" parent="QvNvnMLLL8rubUBJT5Wr-72" vertex="1">
          <mxGeometry y="286" width="270" height="26" as="geometry" />
        </mxCell>
        <mxCell id="QvNvnMLLL8rubUBJT5Wr-130" value="- txtIApellido: JTextField" style="text;align=left;verticalAlign=top;spacingLeft=4;spacingRight=4;overflow=hidden;rotatable=0;points=[[0,0.5],[1,0.5]];portConstraint=eastwest;fillColor=#dae8fc;strokeColor=#6c8ebf;" parent="QvNvnMLLL8rubUBJT5Wr-72" vertex="1">
          <mxGeometry y="312" width="270" height="26" as="geometry" />
        </mxCell>
        <mxCell id="QvNvnMLLL8rubUBJT5Wr-77" value="- txtNombre: JTextField" style="text;align=left;verticalAlign=top;spacingLeft=4;spacingRight=4;overflow=hidden;rotatable=0;points=[[0,0.5],[1,0.5]];portConstraint=eastwest;fillColor=#dae8fc;strokeColor=#6c8ebf;" parent="QvNvnMLLL8rubUBJT5Wr-72" vertex="1">
          <mxGeometry y="338" width="270" height="26" as="geometry" />
        </mxCell>
        <mxCell id="QvNvnMLLL8rubUBJT5Wr-131" value="- txtTelefono: JTextField" style="text;align=left;verticalAlign=top;spacingLeft=4;spacingRight=4;overflow=hidden;rotatable=0;points=[[0,0.5],[1,0.5]];portConstraint=eastwest;fillColor=#dae8fc;strokeColor=#6c8ebf;" parent="QvNvnMLLL8rubUBJT5Wr-72" vertex="1">
          <mxGeometry y="364" width="270" height="26" as="geometry" />
        </mxCell>
        <mxCell id="QvNvnMLLL8rubUBJT5Wr-132" value="- txtDireccion: JTextField" style="text;align=left;verticalAlign=top;spacingLeft=4;spacingRight=4;overflow=hidden;rotatable=0;points=[[0,0.5],[1,0.5]];portConstraint=eastwest;fillColor=#dae8fc;strokeColor=#6c8ebf;" parent="QvNvnMLLL8rubUBJT5Wr-72" vertex="1">
          <mxGeometry y="390" width="270" height="26" as="geometry" />
        </mxCell>
        <mxCell id="PvkqM24tv1rVRUrNYqXg-0" value="- jListAlergias: JList&lt;String&gt; " style="text;align=left;verticalAlign=top;spacingLeft=4;spacingRight=4;overflow=hidden;rotatable=0;points=[[0,0.5],[1,0.5]];portConstraint=eastwest;fillColor=#dae8fc;strokeColor=#6c8ebf;" vertex="1" parent="QvNvnMLLL8rubUBJT5Wr-72">
          <mxGeometry y="416" width="270" height="26" as="geometry" />
        </mxCell>
        <mxCell id="QvNvnMLLL8rubUBJT5Wr-133" value="- jComboAlergias: JComboBox" style="text;align=left;verticalAlign=top;spacingLeft=4;spacingRight=4;overflow=hidden;rotatable=0;points=[[0,0.5],[1,0.5]];portConstraint=eastwest;rounded=0;shadow=0;html=0;fillColor=#dae8fc;strokeColor=#6c8ebf;" parent="QvNvnMLLL8rubUBJT5Wr-72" vertex="1">
          <mxGeometry y="442" width="270" height="26" as="geometry" />
        </mxCell>
        <mxCell id="QvNvnMLLL8rubUBJT5Wr-79" value="- btnAgregarActionPerformed(evt)" style="text;align=left;verticalAlign=top;spacingLeft=4;spacingRight=4;overflow=hidden;rotatable=0;points=[[0,0.5],[1,0.5]];portConstraint=eastwest;fillColor=#dae8fc;strokeColor=#6c8ebf;" parent="QvNvnMLLL8rubUBJT5Wr-72" vertex="1">
          <mxGeometry y="468" width="270" height="26" as="geometry" />
        </mxCell>
        <mxCell id="QvNvnMLLL8rubUBJT5Wr-80" value="- btnVolverActionPerformed(evt)" style="text;align=left;verticalAlign=top;spacingLeft=4;spacingRight=4;overflow=hidden;rotatable=0;points=[[0,0.5],[1,0.5]];portConstraint=eastwest;fillColor=#dae8fc;strokeColor=#6c8ebf;" parent="QvNvnMLLL8rubUBJT5Wr-72" vertex="1">
          <mxGeometry y="494" width="270" height="26" as="geometry" />
        </mxCell>
        <mxCell id="QvNvnMLLL8rubUBJT5Wr-81" value="" style="line;html=1;strokeWidth=1;align=left;verticalAlign=middle;spacingTop=-1;spacingLeft=3;spacingRight=3;rotatable=0;labelPosition=right;points=[];portConstraint=eastwest;fillColor=#dae8fc;strokeColor=#6c8ebf;" parent="QvNvnMLLL8rubUBJT5Wr-72" vertex="1">
          <mxGeometry y="520" width="270" height="8" as="geometry" />
        </mxCell>
        <mxCell id="QvNvnMLLL8rubUBJT5Wr-82" value="AgregarPaciente()  " style="text;align=left;verticalAlign=top;spacingLeft=4;spacingRight=4;overflow=hidden;rotatable=0;points=[[0,0.5],[1,0.5]];portConstraint=eastwest;fillColor=#dae8fc;strokeColor=#6c8ebf;" parent="QvNvnMLLL8rubUBJT5Wr-72" vertex="1">
          <mxGeometry y="528" width="270" height="26" as="geometry" />
        </mxCell>
        <mxCell id="QvNvnMLLL8rubUBJT5Wr-83" value="+ getBtnAgregar(): JButton " style="text;align=left;verticalAlign=top;spacingLeft=4;spacingRight=4;overflow=hidden;rotatable=0;points=[[0,0.5],[1,0.5]];portConstraint=eastwest;fillColor=#dae8fc;strokeColor=#6c8ebf;" parent="QvNvnMLLL8rubUBJT5Wr-72" vertex="1">
          <mxGeometry y="554" width="270" height="26" as="geometry" />
        </mxCell>
        <mxCell id="QvNvnMLLL8rubUBJT5Wr-84" value="+ getBtnCancelar(): JButton" style="text;align=left;verticalAlign=top;spacingLeft=4;spacingRight=4;overflow=hidden;rotatable=0;points=[[0,0.5],[1,0.5]];portConstraint=eastwest;fillColor=#dae8fc;strokeColor=#6c8ebf;" parent="QvNvnMLLL8rubUBJT5Wr-72" vertex="1">
          <mxGeometry y="580" width="270" height="26" as="geometry" />
        </mxCell>
        <mxCell id="QvNvnMLLL8rubUBJT5Wr-135" value="+ getBtnAgregar(): JButton" style="text;align=left;verticalAlign=top;spacingLeft=4;spacingRight=4;overflow=hidden;rotatable=0;points=[[0,0.5],[1,0.5]];portConstraint=eastwest;fillColor=#dae8fc;strokeColor=#6c8ebf;" parent="QvNvnMLLL8rubUBJT5Wr-72" vertex="1">
          <mxGeometry y="606" width="270" height="26" as="geometry" />
        </mxCell>
        <mxCell id="QvNvnMLLL8rubUBJT5Wr-136" value="+ getBtnBuscar(): JButton" style="text;align=left;verticalAlign=top;spacingLeft=4;spacingRight=4;overflow=hidden;rotatable=0;points=[[0,0.5],[1,0.5]];portConstraint=eastwest;fillColor=#dae8fc;strokeColor=#6c8ebf;" parent="QvNvnMLLL8rubUBJT5Wr-72" vertex="1">
          <mxGeometry y="632" width="270" height="26" as="geometry" />
        </mxCell>
        <mxCell id="QvNvnMLLL8rubUBJT5Wr-141" value="+ getBtnGrabar(): JButton" style="text;align=left;verticalAlign=top;spacingLeft=4;spacingRight=4;overflow=hidden;rotatable=0;points=[[0,0.5],[1,0.5]];portConstraint=eastwest;fillColor=#dae8fc;strokeColor=#6c8ebf;" parent="QvNvnMLLL8rubUBJT5Wr-72" vertex="1">
          <mxGeometry y="658" width="270" height="26" as="geometry" />
        </mxCell>
        <mxCell id="QvNvnMLLL8rubUBJT5Wr-85" value="+ getTxtIdentificacion(): JTextField" style="text;align=left;verticalAlign=top;spacingLeft=4;spacingRight=4;overflow=hidden;rotatable=0;points=[[0,0.5],[1,0.5]];portConstraint=eastwest;fillColor=#dae8fc;strokeColor=#6c8ebf;" parent="QvNvnMLLL8rubUBJT5Wr-72" vertex="1">
          <mxGeometry y="684" width="270" height="26" as="geometry" />
        </mxCell>
        <mxCell id="QvNvnMLLL8rubUBJT5Wr-86" value="+ getTxtApellido(): JTextField" style="text;align=left;verticalAlign=top;spacingLeft=4;spacingRight=4;overflow=hidden;rotatable=0;points=[[0,0.5],[1,0.5]];portConstraint=eastwest;fillColor=#dae8fc;strokeColor=#6c8ebf;" parent="QvNvnMLLL8rubUBJT5Wr-72" vertex="1">
          <mxGeometry y="710" width="270" height="26" as="geometry" />
        </mxCell>
        <mxCell id="QvNvnMLLL8rubUBJT5Wr-87" value="+ setTxtNombre(String): void  " style="text;align=left;verticalAlign=top;spacingLeft=4;spacingRight=4;overflow=hidden;rotatable=0;points=[[0,0.5],[1,0.5]];portConstraint=eastwest;fillColor=#dae8fc;strokeColor=#6c8ebf;" parent="QvNvnMLLL8rubUBJT5Wr-72" vertex="1">
          <mxGeometry y="736" width="270" height="26" as="geometry" />
        </mxCell>
        <mxCell id="QvNvnMLLL8rubUBJT5Wr-88" value="+ setTxtTelefono(String): void  " style="text;align=left;verticalAlign=top;spacingLeft=4;spacingRight=4;overflow=hidden;rotatable=0;points=[[0,0.5],[1,0.5]];portConstraint=eastwest;fillColor=#dae8fc;strokeColor=#6c8ebf;" parent="QvNvnMLLL8rubUBJT5Wr-72" vertex="1">
          <mxGeometry y="762" width="270" height="26" as="geometry" />
        </mxCell>
        <mxCell id="QvNvnMLLL8rubUBJT5Wr-137" value="+ setTxtDireccion(String): void  " style="text;align=left;verticalAlign=top;spacingLeft=4;spacingRight=4;overflow=hidden;rotatable=0;points=[[0,0.5],[1,0.5]];portConstraint=eastwest;fillColor=#dae8fc;strokeColor=#6c8ebf;" parent="QvNvnMLLL8rubUBJT5Wr-72" vertex="1">
          <mxGeometry y="788" width="270" height="26" as="geometry" />
        </mxCell>
        <mxCell id="PvkqM24tv1rVRUrNYqXg-1" value="+ getJListAlergias(): JList&lt;String&gt;   " style="text;align=left;verticalAlign=top;spacingLeft=4;spacingRight=4;overflow=hidden;rotatable=0;points=[[0,0.5],[1,0.5]];portConstraint=eastwest;fillColor=#dae8fc;strokeColor=#6c8ebf;" vertex="1" parent="QvNvnMLLL8rubUBJT5Wr-72">
          <mxGeometry y="814" width="270" height="26" as="geometry" />
        </mxCell>
        <mxCell id="QvNvnMLLL8rubUBJT5Wr-89" value="+ addBtnAgregar(ActionListener): void" style="text;align=left;verticalAlign=top;spacingLeft=4;spacingRight=4;overflow=hidden;rotatable=0;points=[[0,0.5],[1,0.5]];portConstraint=eastwest;fillColor=#dae8fc;strokeColor=#6c8ebf;" parent="QvNvnMLLL8rubUBJT5Wr-72" vertex="1">
          <mxGeometry y="840" width="270" height="26" as="geometry" />
        </mxCell>
        <mxCell id="QvNvnMLLL8rubUBJT5Wr-139" value="+ addBtnBuscar(ActionListener): void " style="text;align=left;verticalAlign=top;spacingLeft=4;spacingRight=4;overflow=hidden;rotatable=0;points=[[0,0.5],[1,0.5]];portConstraint=eastwest;fillColor=#dae8fc;strokeColor=#6c8ebf;" parent="QvNvnMLLL8rubUBJT5Wr-72" vertex="1">
          <mxGeometry y="866" width="270" height="26" as="geometry" />
        </mxCell>
        <mxCell id="QvNvnMLLL8rubUBJT5Wr-138" value="+ addBtnActualizar(ActionListener): void " style="text;align=left;verticalAlign=top;spacingLeft=4;spacingRight=4;overflow=hidden;rotatable=0;points=[[0,0.5],[1,0.5]];portConstraint=eastwest;fillColor=#dae8fc;strokeColor=#6c8ebf;" parent="QvNvnMLLL8rubUBJT5Wr-72" vertex="1">
          <mxGeometry y="892" width="270" height="26" as="geometry" />
        </mxCell>
        <mxCell id="QvNvnMLLL8rubUBJT5Wr-140" value="+ addBtnCancelar(ActionListener): void " style="text;align=left;verticalAlign=top;spacingLeft=4;spacingRight=4;overflow=hidden;rotatable=0;points=[[0,0.5],[1,0.5]];portConstraint=eastwest;fillColor=#dae8fc;strokeColor=#6c8ebf;" parent="QvNvnMLLL8rubUBJT5Wr-72" vertex="1">
          <mxGeometry y="918" width="270" height="26" as="geometry" />
        </mxCell>
        <mxCell id="QvNvnMLLL8rubUBJT5Wr-90" value="+ addBtnGrabar(ActionListener): void " style="text;align=left;verticalAlign=top;spacingLeft=4;spacingRight=4;overflow=hidden;rotatable=0;points=[[0,0.5],[1,0.5]];portConstraint=eastwest;fillColor=#dae8fc;strokeColor=#6c8ebf;" parent="QvNvnMLLL8rubUBJT5Wr-72" vertex="1">
          <mxGeometry y="944" width="270" height="26" as="geometry" />
        </mxCell>
        <mxCell id="QvNvnMLLL8rubUBJT5Wr-92" value="Main                   " style="swimlane;fontStyle=2;align=center;verticalAlign=top;childLayout=stackLayout;horizontal=1;startSize=26;horizontalStack=0;resizeParent=1;resizeLast=0;collapsible=1;marginBottom=0;rounded=0;shadow=0;strokeWidth=1;fillColor=#e1d5e7;strokeColor=#9673a6;" parent="WIyWlLk6GJQsqaUBKTNV-1" vertex="1">
          <mxGeometry x="2730" y="550" width="240" height="52" as="geometry">
            <mxRectangle x="130" y="380" width="160" height="26" as="alternateBounds" />
          </mxGeometry>
        </mxCell>
        <mxCell id="QvNvnMLLL8rubUBJT5Wr-93" value="- main(args: String[])   " style="text;align=left;verticalAlign=top;spacingLeft=4;spacingRight=4;overflow=hidden;rotatable=0;points=[[0,0.5],[1,0.5]];portConstraint=eastwest;fillColor=#e1d5e7;strokeColor=#9673a6;" parent="QvNvnMLLL8rubUBJT5Wr-92" vertex="1">
          <mxGeometry y="26" width="240" height="26" as="geometry" />
        </mxCell>
        <mxCell id="QvNvnMLLL8rubUBJT5Wr-120" value="PacienteDAOInterface" style="swimlane;fontStyle=2;align=center;verticalAlign=top;childLayout=stackLayout;horizontal=1;startSize=26;horizontalStack=0;resizeParent=1;resizeLast=0;collapsible=1;marginBottom=0;rounded=0;shadow=0;strokeWidth=1;fillColor=#fff2cc;strokeColor=#d6b656;" parent="WIyWlLk6GJQsqaUBKTNV-1" vertex="1">
          <mxGeometry x="2585" y="170" width="325" height="130" as="geometry">
            <mxRectangle x="130" y="380" width="160" height="26" as="alternateBounds" />
          </mxGeometry>
        </mxCell>
        <mxCell id="QvNvnMLLL8rubUBJT5Wr-121" value="+ getPacientes(): Map&lt;Integer, Paciente&gt;" style="text;align=left;verticalAlign=top;spacingLeft=4;spacingRight=4;overflow=hidden;rotatable=0;points=[[0,0.5],[1,0.5]];portConstraint=eastwest;fillColor=#fff2cc;strokeColor=#d6b656;" parent="QvNvnMLLL8rubUBJT5Wr-120" vertex="1">
          <mxGeometry y="26" width="325" height="26" as="geometry" />
        </mxCell>
        <mxCell id="QvNvnMLLL8rubUBJT5Wr-122" value="+ getPaciente(id: int): Paciente" style="text;align=left;verticalAlign=top;spacingLeft=4;spacingRight=4;overflow=hidden;rotatable=0;points=[[0,0.5],[1,0.5]];portConstraint=eastwest;rounded=0;shadow=0;html=0;fillColor=#fff2cc;strokeColor=#d6b656;" parent="QvNvnMLLL8rubUBJT5Wr-120" vertex="1">
          <mxGeometry y="52" width="325" height="26" as="geometry" />
        </mxCell>
        <mxCell id="QvNvnMLLL8rubUBJT5Wr-123" value="+ addPaciente(paciente: Paciente): boolean" style="text;align=left;verticalAlign=top;spacingLeft=4;spacingRight=4;overflow=hidden;rotatable=0;points=[[0,0.5],[1,0.5]];portConstraint=eastwest;rounded=0;shadow=0;html=0;fillColor=#fff2cc;strokeColor=#d6b656;" parent="QvNvnMLLL8rubUBJT5Wr-120" vertex="1">
          <mxGeometry y="78" width="325" height="26" as="geometry" />
        </mxCell>
        <mxCell id="QvNvnMLLL8rubUBJT5Wr-124" value="+ updatePaciente(id: int, paciente: Paciente): boolean" style="text;align=left;verticalAlign=top;spacingLeft=4;spacingRight=4;overflow=hidden;rotatable=0;points=[[0,0.5],[1,0.5]];portConstraint=eastwest;rounded=0;shadow=0;html=0;fillColor=#fff2cc;strokeColor=#d6b656;" parent="QvNvnMLLL8rubUBJT5Wr-120" vertex="1">
          <mxGeometry y="104" width="325" height="26" as="geometry" />
        </mxCell>
        <mxCell id="QvNvnMLLL8rubUBJT5Wr-151" value="" style="endArrow=block;dashed=1;endFill=0;endSize=12;html=1;rounded=0;fillColor=#ffe6cc;strokeColor=#d79b00;exitX=0.75;exitY=0;exitDx=0;exitDy=0;entryX=0.5;entryY=0;entryDx=0;entryDy=0;" parent="WIyWlLk6GJQsqaUBKTNV-1" source="QvNvnMLLL8rubUBJT5Wr-0" target="QvNvnMLLL8rubUBJT5Wr-120" edge="1">
          <mxGeometry width="160" relative="1" as="geometry">
            <mxPoint x="2100" y="186" as="sourcePoint" />
            <mxPoint x="2763" y="170" as="targetPoint" />
            <Array as="points">
              <mxPoint x="2453" y="120" />
              <mxPoint x="2748" y="120" />
            </Array>
          </mxGeometry>
        </mxCell>
        <mxCell id="QvNvnMLLL8rubUBJT5Wr-152" value="" style="endArrow=diamondThin;endFill=1;endSize=24;html=1;rounded=0;exitX=0.5;exitY=0;exitDx=0;exitDy=0;entryX=0.5;entryY=0;entryDx=0;entryDy=0;fillColor=#e1d5e7;strokeColor=#9673a6;" parent="WIyWlLk6GJQsqaUBKTNV-1" source="QvNvnMLLL8rubUBJT5Wr-72" target="QvNvnMLLL8rubUBJT5Wr-92" edge="1">
          <mxGeometry width="160" relative="1" as="geometry">
            <mxPoint x="1395" y="1180" as="sourcePoint" />
            <mxPoint x="2360" y="770" as="targetPoint" />
            <Array as="points">
              <mxPoint x="2505" y="400" />
              <mxPoint x="2850" y="400" />
            </Array>
          </mxGeometry>
        </mxCell>
        <mxCell id="QvNvnMLLL8rubUBJT5Wr-153" value="" style="endArrow=open;endFill=1;endSize=12;html=1;rounded=0;exitX=0.5;exitY=0;exitDx=0;exitDy=0;entryX=0.25;entryY=0;entryDx=0;entryDy=0;fillColor=#ffe6cc;strokeColor=#d79b00;" parent="WIyWlLk6GJQsqaUBKTNV-1" source="QvNvnMLLL8rubUBJT5Wr-37" target="QvNvnMLLL8rubUBJT5Wr-0" edge="1">
          <mxGeometry width="160" relative="1" as="geometry">
            <mxPoint x="260" y="1193" as="sourcePoint" />
            <mxPoint x="1440" y="502" as="targetPoint" />
            <Array as="points">
              <mxPoint x="1835" y="120" />
              <mxPoint x="2120" y="120" />
              <mxPoint x="2298" y="120" />
            </Array>
          </mxGeometry>
        </mxCell>
        <mxCell id="QvNvnMLLL8rubUBJT5Wr-154" value="Use" style="endArrow=open;endSize=12;dashed=1;html=1;rounded=0;entryX=0.5;entryY=0;entryDx=0;entryDy=0;fillColor=#f8cecc;strokeColor=#b85450;exitX=0.5;exitY=1;exitDx=0;exitDy=0;" parent="WIyWlLk6GJQsqaUBKTNV-1" source="QvNvnMLLL8rubUBJT5Wr-37" target="QvNvnMLLL8rubUBJT5Wr-19" edge="1">
          <mxGeometry width="160" relative="1" as="geometry">
            <mxPoint x="1033" y="1202" as="sourcePoint" />
            <mxPoint x="887" y="260" as="targetPoint" />
            <Array as="points" />
          </mxGeometry>
        </mxCell>
        <mxCell id="QvNvnMLLL8rubUBJT5Wr-155" value="" style="endArrow=open;endFill=1;endSize=12;html=1;rounded=0;exitX=0.75;exitY=0;exitDx=0;exitDy=0;entryX=0;entryY=0.5;entryDx=0;entryDy=0;fillColor=#ffe6cc;strokeColor=#d79b00;" parent="WIyWlLk6GJQsqaUBKTNV-1" source="QvNvnMLLL8rubUBJT5Wr-19" target="QvNvnMLLL8rubUBJT5Wr-0" edge="1">
          <mxGeometry width="160" relative="1" as="geometry">
            <mxPoint x="981" y="274" as="sourcePoint" />
            <mxPoint x="1440" y="296" as="targetPoint" />
            <Array as="points">
              <mxPoint x="2160" y="560" />
              <mxPoint x="2160" y="254" />
            </Array>
          </mxGeometry>
        </mxCell>
        <mxCell id="QvNvnMLLL8rubUBJT5Wr-156" value="" style="endArrow=diamondThin;endFill=1;endSize=24;html=1;rounded=0;entryX=0;entryY=0;entryDx=0;entryDy=0;fillColor=#d5e8d4;strokeColor=#82b366;exitX=0.75;exitY=0;exitDx=0;exitDy=0;" parent="WIyWlLk6GJQsqaUBKTNV-1" source="QvNvnMLLL8rubUBJT5Wr-37" target="QvNvnMLLL8rubUBJT5Wr-0" edge="1">
          <mxGeometry width="160" relative="1" as="geometry">
            <mxPoint x="1610" y="620" as="sourcePoint" />
            <mxPoint x="1310" y="309" as="targetPoint" />
            <Array as="points">
              <mxPoint x="1938" y="140" />
              <mxPoint x="2220" y="140" />
            </Array>
          </mxGeometry>
        </mxCell>
        <mxCell id="QvNvnMLLL8rubUBJT5Wr-158" value="" style="endArrow=diamondThin;endFill=1;endSize=24;html=1;rounded=0;exitX=1;exitY=0;exitDx=0;exitDy=0;entryX=0.25;entryY=0;entryDx=0;entryDy=0;fillColor=#dae8fc;strokeColor=#6c8ebf;" parent="WIyWlLk6GJQsqaUBKTNV-1" source="QvNvnMLLL8rubUBJT5Wr-37" target="QvNvnMLLL8rubUBJT5Wr-72" edge="1">
          <mxGeometry width="160" relative="1" as="geometry">
            <mxPoint x="470" y="1190" as="sourcePoint" />
            <mxPoint x="1270" y="1180" as="targetPoint" />
            <Array as="points">
              <mxPoint x="2080" y="172" />
              <mxPoint x="2080" y="400" />
              <mxPoint x="2280" y="400" />
              <mxPoint x="2438" y="400" />
            </Array>
          </mxGeometry>
        </mxCell>
        <mxCell id="QvNvnMLLL8rubUBJT5Wr-159" value="" style="endArrow=open;endFill=1;endSize=12;html=1;rounded=0;exitX=0.321;exitY=1;exitDx=0;exitDy=0;entryX=0.313;entryY=0.002;entryDx=0;entryDy=0;fillColor=#d5e8d4;strokeColor=#82b366;entryPerimeter=0;exitPerimeter=0;" parent="WIyWlLk6GJQsqaUBKTNV-1" source="QvNvnMLLL8rubUBJT5Wr-69" target="QvNvnMLLL8rubUBJT5Wr-19" edge="1">
          <mxGeometry width="160" relative="1" as="geometry">
            <mxPoint x="490" y="2230" as="sourcePoint" />
            <mxPoint x="600" y="710" as="targetPoint" />
            <Array as="points" />
          </mxGeometry>
        </mxCell>
      </root>
    </mxGraphModel>
  </diagram>
</mxfile>
